<svg width="194" height="118" viewBox="0 0 194 118" fill="none" xmlns="http://www.w3.org/2000/svg">
<g style="mix-blend-mode:soft-light">
<path d="M144.795 0H193.247V49.1064H166.972C154.724 49.1064 144.795 39.1775 144.795 26.9295V0Z" fill="#720001"/>
</g>
<g style="mix-blend-mode:soft-light">
<path d="M96.343 49.1064H144.795V98.2128H118.52C106.272 98.2128 96.343 88.2839 96.343 76.036V49.1064Z" fill="#720001"/>
</g>
<path d="M48.3115 90.7422H96.7632V139.849H70.4884C58.2404 139.849 48.3115 129.92 48.3115 117.672V90.7422Z" fill="white" fill-opacity="0.3"/>
<path d="M0 41.5898H48.4516V90.6962H22.1768C9.92891 90.6962 0 80.7673 0 68.5194V41.5898Z" fill="white" fill-opacity="0.2"/>
<g style="mix-blend-mode:soft-light">
<path d="M47.8916 0H96.3432V49.1064H70.0684C57.8205 49.1064 47.8916 39.1775 47.8916 26.9295V0Z" fill="#720001" fill-opacity="0.7"/>
</g>
<g style="mix-blend-mode:soft-light">
<path d="M144.795 98.2129H193.247V147.319H166.972C154.724 147.319 144.795 137.39 144.795 125.142V98.2129Z" fill="#720001" fill-opacity="0.6"/>
</g>
</svg>
