<svg width="1440" height="360" viewBox="0 0 1440 360" fill="none" xmlns="http://www.w3.org/2000/svg">
<g clip-path="url(#clip0_3474_24261)">
<rect width="1440" height="360" fill="#F4F2F2"/>
<g filter="url(#filter0_f_3474_24261)">
<circle cx="1379.5" cy="382.5" r="450.5" fill="url(#paint0_radial_3474_24261)"/>
</g>
<g style="mix-blend-mode:soft-light">
<path d="M1324.67 0H1440V116.892H1377.46C1348.3 116.892 1324.67 93.2573 1324.67 64.1025V0Z" fill="#720001"/>
</g>
<g style="mix-blend-mode:soft-light">
<path d="M1209.33 116.892H1324.67V233.783H1262.12C1232.97 233.783 1209.33 210.149 1209.33 180.994V116.892Z" fill="#720001"/>
</g>
<g style="mix-blend-mode:soft-light">
<path d="M1210 333H1325.33V449.892H1262.79C1233.63 449.892 1210 426.257 1210 397.103V333Z" fill="#720001" fill-opacity="0.4"/>
</g>
<path d="M1095 216H1210.33V332.892H1147.79C1118.63 332.892 1095 309.257 1095 280.103V216Z" fill="white" fill-opacity="0.3"/>
<path d="M980 99H1095.33V215.892H1032.79C1003.63 215.892 980 192.257 980 163.103V99Z" fill="white" fill-opacity="0.2"/>
<g style="mix-blend-mode:soft-light">
<path d="M1094 0H1209.33V116.892H1146.79C1117.63 116.892 1094 93.2573 1094 64.1025V0Z" fill="#720001" fill-opacity="0.7"/>
</g>
<g style="mix-blend-mode:soft-light">
<path d="M1324.67 233.783H1440V350.675H1377.46C1348.3 350.675 1324.67 327.04 1324.67 297.886V233.783Z" fill="#720001" fill-opacity="0.6"/>
</g>
</g>
<defs>
<filter id="filter0_f_3474_24261" x="488.954" y="-508.046" width="1781.09" height="1781.09" filterUnits="userSpaceOnUse" color-interpolation-filters="sRGB">
<feFlood flood-opacity="0" result="BackgroundImageFix"/>
<feBlend mode="normal" in="SourceGraphic" in2="BackgroundImageFix" result="shape"/>
<feGaussianBlur stdDeviation="220.023" result="effect1_foregroundBlur_3474_24261"/>
</filter>
<radialGradient id="paint0_radial_3474_24261" cx="0" cy="0" r="1" gradientUnits="userSpaceOnUse" gradientTransform="translate(1379.5 382.5) rotate(90) scale(450.5)">
<stop stop-color="#FF5602" stop-opacity="0"/>
<stop offset="1" stop-color="#FF5602"/>
</radialGradient>
<clipPath id="clip0_3474_24261">
<rect width="1440" height="360" fill="white"/>
</clipPath>
</defs>
</svg>
