<svg width="265" height="259" viewBox="0 0 265 259" fill="none" xmlns="http://www.w3.org/2000/svg">
<path d="M198.423 0H264.819V67.2939H228.813C212.029 67.2939 198.423 53.6877 198.423 36.9035V0Z" fill="#F4D3C7"/>
<path d="M132.026 67.2939H198.422V134.588H162.416C145.632 134.588 132.026 120.982 132.026 104.197V67.2939Z" fill="#F89F78"/>
<path d="M132.41 191.706H198.806V259H162.8C146.016 259 132.41 245.394 132.41 228.61V191.706Z" fill="#F99B6E"/>
<path d="M66.2048 124.35H132.601V191.644H96.5953C79.8111 191.644 66.2048 178.037 66.2048 161.253V124.35Z" fill="#F9D4C3"/>
<path d="M0 56.9941H66.3967V124.288H30.3905C13.6063 124.288 0 110.682 0 93.8976V56.9941Z" fill="#F6F0ED"/>
<path d="M65.6291 0H132.026V67.2939H96.0196C79.2354 67.2939 65.6291 53.6877 65.6291 36.9035V0Z" fill="#F5E1DC"/>
<path d="M198.423 134.588H264.819V201.882H228.813C212.029 201.882 198.423 188.276 198.423 171.491V134.588Z" fill="#F9976A"/>
</svg>
