<svg width="130" height="103" viewBox="0 0 130 103" fill="none" xmlns="http://www.w3.org/2000/svg">
<g style="mix-blend-mode:soft-light">
<path d="M97.689 0H130.246V32.9974H112.591C104.361 32.9974 97.689 26.3256 97.689 18.0955V0Z" fill="#720001"/>
</g>
<g style="mix-blend-mode:soft-light">
<path d="M65.1313 32.998H97.6888V65.9955H80.0333C71.8032 65.9955 65.1313 59.3237 65.1313 51.0936V32.998Z" fill="#720001"/>
</g>
<g style="mix-blend-mode:soft-light">
<path d="M65.3198 94.0039H97.8773V127.001H80.2217C71.9916 127.001 65.3198 120.33 65.3198 112.099V94.0039Z" fill="#720001" fill-opacity="0.4"/>
</g>
<path d="M32.8564 60.9746H65.4139V93.972H47.7584C39.5283 93.972 32.8564 87.3002 32.8564 79.0701V60.9746Z" fill="white" fill-opacity="0.3"/>
<path d="M0.393066 27.9473H32.9505V60.9447H15.295C7.06488 60.9447 0.393066 54.2729 0.393066 46.0428V27.9473Z" fill="white" fill-opacity="0.2"/>
<g style="mix-blend-mode:soft-light">
<path d="M32.5742 0H65.1317V32.9974H47.4761C39.246 32.9974 32.5742 26.3256 32.5742 18.0955V0Z" fill="#720001" fill-opacity="0.7"/>
</g>
<g style="mix-blend-mode:soft-light">
<path d="M97.689 65.9941H130.246V98.9916H112.591C104.361 98.9916 97.689 92.3197 97.689 84.0897V65.9941Z" fill="#720001" fill-opacity="0.6"/>
</g>
</svg>
