<svg width="24" height="25" viewBox="0 0 24 25" fill="none" xmlns="http://www.w3.org/2000/svg">
<g id="Social Media Icon Square/Instagram">
<rect id="Social Media Icon" y="0.101562" width="24" height="24" rx="4" fill="#F5F7FB" fill-opacity="0.2"/>
<path id="Instagram" fill-rule="evenodd" clip-rule="evenodd" d="M6 12.1016C6 9.7048 6 8.50642 6.57113 7.64326C6.82616 7.25782 7.15626 6.92773 7.5417 6.67269C8.40486 6.10156 9.60324 6.10156 12 6.10156C14.3968 6.10156 15.5951 6.10156 16.4583 6.67269C16.8437 6.92773 17.1738 7.25782 17.4289 7.64326C18 8.50642 18 9.7048 18 12.1016C18 14.4983 18 15.6967 17.4289 16.5599C17.1738 16.9453 16.8437 17.2754 16.4583 17.5304C15.5951 18.1016 14.3968 18.1016 12 18.1016C9.60324 18.1016 8.40486 18.1016 7.5417 17.5304C7.15626 17.2754 6.82616 16.9453 6.57113 16.5599C6 15.6967 6 14.4983 6 12.1016ZM15.1062 12.1017C15.1062 13.8173 13.7154 15.208 11.9999 15.208C10.2843 15.208 8.89362 13.8173 8.89362 12.1017C8.89362 10.3862 10.2843 8.99544 11.9999 8.99544C13.7154 8.99544 15.1062 10.3862 15.1062 12.1017ZM11.9999 14.157C13.135 14.157 14.0552 13.2368 14.0552 12.1017C14.0552 10.9666 13.135 10.0464 11.9999 10.0464C10.8648 10.0464 9.94456 10.9666 9.94456 12.1017C9.94456 13.2368 10.8648 14.157 11.9999 14.157ZM15.2288 9.56926C15.632 9.56926 15.9587 9.24248 15.9587 8.83938C15.9587 8.43628 15.632 8.1095 15.2288 8.1095C14.8257 8.1095 14.499 8.43628 14.499 8.83938C14.499 9.24248 14.8257 9.56926 15.2288 9.56926Z" fill="#F5F7FB" fill-opacity="0.9"/>
</g>
</svg>
