<svg width="24" height="25" viewBox="0 0 24 25" fill="none" xmlns="http://www.w3.org/2000/svg">
<g id="Group 73">
<rect id="Social Media Icon" y="0.101562" width="24" height="24" rx="4" fill="#F5F7FB" fill-opacity="0.2"/>
<path id="LinkedIn" d="M6 7.71477C6 7.32996 6.13514 7.0125 6.40541 6.76239C6.67567 6.51226 7.02703 6.38721 7.45946 6.38721C7.88417 6.38721 8.2278 6.51034 8.49035 6.75662C8.76061 7.01058 8.89575 7.3415 8.89575 7.7494C8.89575 8.11881 8.76448 8.42664 8.50193 8.67292C8.23166 8.92689 7.87645 9.05387 7.43629 9.05387H7.42471C7 9.05387 6.65637 8.92689 6.39382 8.67292C6.13127 8.41895 6 8.09956 6 7.71477ZM6.15058 17.8158V10.1044H8.72201V17.8158H6.15058ZM10.1467 17.8158H12.7181V13.5099C12.7181 13.2405 12.749 13.0327 12.8108 12.8865C12.9189 12.6248 13.083 12.4036 13.3031 12.2227C13.5232 12.0418 13.7992 11.9514 14.1313 11.9514C14.9961 11.9514 15.4286 12.5325 15.4286 13.6946V17.8158H18V13.3944C18 12.2554 17.7297 11.3915 17.1892 10.8028C16.6486 10.214 15.9344 9.91967 15.0463 9.91967C14.0502 9.91967 13.2741 10.3468 12.7181 11.2011V11.2241H12.7066L12.7181 11.2011V10.1044H10.1467C10.1622 10.3506 10.1699 11.1164 10.1699 12.4016C10.1699 13.6869 10.1622 15.4916 10.1467 17.8158Z" fill="#F5F7FB" fill-opacity="0.9"/>
</g>
</svg>
