<svg width="16" height="17" viewBox="0 0 16 17" fill="none" xmlns="http://www.w3.org/2000/svg">
<g id="Linear / Map &#38; Location / Map Point Wave" clip-path="url(#clip0_3606_3085)">
<path id="Vector" d="M3.33301 5.77815C3.33301 3.37953 5.42235 1.43506 7.99967 1.43506C10.577 1.43506 12.6663 3.37953 12.6663 5.77815C12.6663 8.15798 11.1769 10.935 8.85305 11.9281C8.31133 12.1596 7.68802 12.1596 7.1463 11.9281C4.82245 10.935 3.33301 8.15798 3.33301 5.77815Z" fill="#E4E7EF" stroke="#E4E7EF"/>
<path id="Vector_2" d="M9.33366 6.1014C9.33366 6.83778 8.73671 7.43473 8.00033 7.43473C7.26395 7.43473 6.66699 6.83778 6.66699 6.1014C6.66699 5.36502 7.26395 4.76807 8.00033 4.76807C8.73671 4.76807 9.33366 5.36502 9.33366 6.1014Z" fill="#5B5B5C" stroke="#5B5B5C"/>
<path id="Vector_3" d="M13.9734 10.4351C14.4169 10.8367 14.6663 11.2894 14.6663 11.7684C14.6663 13.4252 11.6816 14.7684 7.99967 14.7684C4.31778 14.7684 1.33301 13.4252 1.33301 11.7684C1.33301 11.2894 1.58242 10.8367 2.02599 10.4351" stroke="#E4E7EF" stroke-linecap="round"/>
</g>
<defs>
<clipPath id="clip0_3606_3085">
<rect width="16" height="16" fill="white" transform="translate(0 0.101562)"/>
</clipPath>
</defs>
</svg>
