<svg width="104" height="44" viewBox="0 0 104 44" fill="none" xmlns="http://www.w3.org/2000/svg">
<g id="Group 1171276778">
<path id="Vector" d="M12.7462 14.7629L0 7.49648L9.14907 1.51995C11.1599 0.21408 13.7396 0.157999 15.8066 1.37574L24.9557 6.75943L12.7462 14.7629Z" fill="#D51F26"/>
<path id="Vector_2" d="M26.4298 22.5419L13.6836 15.2755L22.8327 9.299C24.8435 7.99313 27.4232 7.93705 29.4902 9.15479L38.6393 14.5385L26.4298 22.5419Z" fill="#F05822"/>
<path id="Vector_3" d="M13.7959 32.4521V16.8699L26.2297 24.0241V43.4999L16.8563 37.8599C14.9576 36.7142 13.7959 34.6713 13.7959 32.4361V32.4521Z" fill="#D51F26"/>
<path id="Vector_4" d="M103.837 33.686H42.4209V43.46H103.837V33.686Z" fill="url(#paint0_linear_3316_7164)"/>
<path id="Vector_5" d="M51.4817 37.4433V40.8722H50.7606V37.4433H50.1357V36.6902H50.7606V35.3042H51.4817V36.6902H52.1066V37.4433H51.4817Z" fill="white"/>
<path id="Vector_6" d="M55.5037 39.1097C55.5037 39.2379 55.5598 39.3901 55.6479 39.5343C55.736 39.6785 55.8722 39.7907 56.0004 39.9028C56.2407 40.0871 56.4971 40.1832 56.8096 40.1832C57.3063 40.1832 57.7149 39.9429 58.0273 39.4622L58.6522 39.8307C58.4279 40.1832 58.1715 40.4556 57.8591 40.6399C57.5466 40.8241 57.1941 40.9203 56.8096 40.9203C56.425 40.9203 56.2568 40.8642 56.0004 40.752C55.744 40.6399 55.5197 40.4957 55.3194 40.2874C55.1191 40.0871 54.9669 39.8628 54.8548 39.6064C54.7426 39.35 54.6865 39.0696 54.6865 38.7972C54.6865 38.5248 54.7426 38.2444 54.8548 37.9881C54.9669 37.7317 55.1111 37.4914 55.3194 37.3071C55.5037 37.1068 55.728 36.9546 55.9844 36.8665C56.2407 36.7543 56.5211 36.6982 56.7935 36.6982C57.0659 36.6982 57.3463 36.7543 57.6027 36.8665C57.8591 36.9786 58.0834 37.1228 58.2837 37.3071C58.6922 37.7317 58.9086 38.2284 58.9086 38.7812C58.9086 39.334 58.9086 38.9815 58.8925 39.0937H55.5197L55.5037 39.1097ZM56.7935 37.3952C56.5692 37.3952 56.3529 37.4513 56.1446 37.5394C55.9363 37.6276 55.7761 37.7798 55.6639 37.948C55.5518 38.1163 55.4797 38.2765 55.4797 38.4608H58.0834C58.0834 38.2765 58.0273 38.1083 57.8991 37.948C57.787 37.7798 57.6187 37.6516 57.4184 37.5394C57.2181 37.4433 57.0098 37.3952 56.7695 37.3952H56.7855H56.7935Z" fill="white"/>
<path id="Vector_7" d="M63.8351 40.8803L62.5613 39.3341V40.8803H61.8242V35.3284H62.5613V37.7238L63.7069 36.6503H64.7965L62.8256 38.4929L64.8205 40.8883H63.8431V40.8723L63.8351 40.8803Z" fill="white"/>
<path id="Vector_8" d="M70.0521 40.8803V38.3727C70.0521 38.1164 69.956 37.9081 69.7717 37.7238C69.5875 37.5395 69.3872 37.4434 69.1228 37.4434C68.8584 37.4434 68.6581 37.5395 68.4739 37.7238C68.3777 37.8199 68.3297 37.9081 68.2736 38.0202C68.2175 38.1324 68.2015 38.2445 68.2015 38.3727V40.8803H67.4805V36.8025H68.2015V37.155C68.3137 37.0268 68.4418 36.9146 68.6261 36.8425C68.7943 36.7464 68.9786 36.7144 69.1388 36.7144C69.2991 36.7144 69.5795 36.7544 69.7637 36.8425C69.964 36.9387 70.1483 37.0428 70.3005 37.195C70.4447 37.3392 70.5809 37.5235 70.653 37.7318C70.7491 37.9321 70.7812 38.1404 70.7812 38.3807V40.8883H70.0441L70.0521 40.8803Z" fill="white"/>
<path id="Vector_9" d="M75.748 40.9123C75.4676 40.9123 75.1952 40.8562 74.9389 40.7441C74.6825 40.6319 74.4582 40.4877 74.2579 40.2794C74.0576 40.0791 73.9054 39.8548 73.7932 39.5984C73.6811 39.3421 73.625 39.0617 73.625 38.7893C73.625 38.5169 73.6811 38.2205 73.7932 37.9561C73.9054 37.6917 74.0496 37.4594 74.2579 37.2751C74.4582 37.0748 74.6825 36.9226 74.9389 36.8345C75.1952 36.7223 75.4756 36.6663 75.748 36.6663C76.0204 36.6663 76.3168 36.7223 76.5812 36.8345C76.8376 36.9467 77.0779 37.0909 77.2622 37.2751C77.4465 37.4594 77.6147 37.6997 77.7028 37.9561C77.815 38.2125 77.8711 38.4929 77.8711 38.7893C77.8711 39.0857 77.815 39.3421 77.7028 39.5984C77.5907 39.8548 77.4465 40.0791 77.2622 40.2794C77.0619 40.4797 76.8376 40.6319 76.5812 40.7441C76.3249 40.8562 76.0445 40.9123 75.748 40.9123ZM75.748 37.4113C75.3795 37.4113 75.051 37.5395 74.7867 37.8199C74.6585 37.9481 74.5623 38.1003 74.4902 38.2605C74.4181 38.4288 74.3781 38.613 74.3781 38.7973C74.3781 38.9816 74.4181 39.1498 74.4902 39.3341C74.5623 39.5023 74.6585 39.6465 74.7867 39.7747C74.9148 39.9029 75.0671 39.999 75.2273 40.0711C75.3955 40.1432 75.5798 40.1833 75.7641 40.1833C75.9483 40.1833 76.1326 40.1432 76.3008 40.0711C76.4691 39.999 76.6133 39.9029 76.7415 39.7747C76.8696 39.6465 76.9658 39.4943 77.0379 39.3341C77.11 39.1658 77.15 38.9816 77.15 38.7973C77.15 38.613 77.11 38.4288 77.0379 38.2605C76.9658 38.0923 76.8696 37.9321 76.7415 37.8199C76.6133 37.6917 76.4611 37.5956 76.3008 37.5235C76.1326 37.4514 75.9483 37.4113 75.7641 37.4113H75.748Z" fill="white"/>
<path id="Vector_10" d="M80.8037 40.8803V35.3284H81.4687V40.8803H80.8037Z" fill="white"/>
<path id="Vector_11" d="M86.5078 40.9123C86.2274 40.9123 85.955 40.8562 85.6986 40.7441C85.4423 40.6319 85.218 40.4877 85.0177 40.2794C84.8174 40.0791 84.6652 39.8548 84.553 39.5984C84.4408 39.3421 84.3848 39.0617 84.3848 38.7893C84.3848 38.5169 84.4408 38.2205 84.553 37.9561C84.6652 37.6997 84.8094 37.4594 85.0177 37.2751C85.218 37.0748 85.4423 36.9226 85.6986 36.8345C85.955 36.7223 86.2354 36.6663 86.5078 36.6663C86.7802 36.6663 87.0766 36.7223 87.341 36.8345C87.5974 36.9467 87.8377 37.0909 88.022 37.2751C88.2223 37.4754 88.3745 37.6997 88.4626 37.9561C88.5748 38.2125 88.6308 38.4929 88.6308 38.7893C88.6308 39.0857 88.5748 39.3421 88.4626 39.5984C88.3504 39.8548 88.2062 40.0791 88.022 40.2794C87.8217 40.4797 87.5974 40.6319 87.341 40.7441C87.0846 40.8562 86.8042 40.9123 86.5078 40.9123ZM86.5078 37.4113C86.1393 37.4113 85.8108 37.5395 85.5464 37.8199C85.4182 37.9481 85.3221 38.1003 85.25 38.2605C85.1779 38.4288 85.1378 38.613 85.1378 38.7973C85.1378 38.9816 85.1779 39.1498 85.25 39.3341C85.3221 39.5023 85.4182 39.6465 85.5464 39.7747C85.6746 39.9029 85.8268 39.999 85.9871 40.0711C86.1553 40.1432 86.3396 40.1833 86.5238 40.1833C86.7081 40.1833 86.8924 40.1432 87.0606 40.0711C87.2288 39.999 87.373 39.9029 87.5012 39.7747C87.6294 39.6465 87.7255 39.4943 87.7976 39.3341C87.8697 39.1658 87.9098 38.9816 87.9098 38.7973C87.9098 38.613 87.8697 38.4288 87.7976 38.2605C87.7255 38.0923 87.6294 37.9321 87.5012 37.8199C87.373 37.6917 87.2208 37.5956 87.0606 37.5235C86.8924 37.4514 86.7081 37.4113 86.5238 37.4113H86.5078Z" fill="white"/>
<path id="Vector_12" d="M91.9234 36.0814C91.8112 36.0814 91.7231 36.0413 91.643 35.9692C91.5709 35.8971 91.5308 35.801 91.5308 35.6888C91.5308 35.5767 91.5709 35.4885 91.643 35.4325C91.7151 35.3604 91.8112 35.3203 91.9234 35.3203C92.0356 35.3203 92.1237 35.3604 92.1798 35.4325C92.2519 35.5046 92.2919 35.6007 92.2919 35.6888C92.2919 35.777 92.2519 35.8891 92.1798 35.9692C92.1077 36.0494 92.0115 36.0814 91.9234 36.0814ZM90.7297 41.9137C90.9861 41.9137 91.1944 41.8416 91.3546 41.6734C91.4988 41.5292 91.5949 41.3209 91.5949 41.0805V36.7063H92.2919V41.0805C92.2919 41.3049 92.2519 41.5051 92.1798 41.6894C92.1077 41.8897 91.9955 42.0579 91.8673 42.2021C91.7231 42.3463 91.5549 42.4585 91.3706 42.5546C91.1863 42.6508 90.9861 42.6828 90.7617 42.6828V41.9298L90.7217 41.9137H90.7297Z" fill="white"/>
<path id="Vector_13" d="M95.7451 36.0975C95.6329 36.0975 95.5448 36.0575 95.4647 35.9854C95.3926 35.9132 95.3525 35.8171 95.3525 35.705C95.3525 35.5928 95.3926 35.5047 95.4647 35.4486C95.5368 35.3765 95.6329 35.3364 95.7451 35.3364C95.8573 35.3364 95.9454 35.3765 96.0255 35.4486C96.0976 35.5207 96.1377 35.6168 96.1377 35.705C96.1377 35.7931 96.0976 35.9052 96.0255 35.9854C95.9534 36.0575 95.8573 36.0975 95.7451 36.0975ZM95.3926 40.8803V36.6904H96.0896V40.8803H95.3926Z" fill="white"/>
<path id="Vector_14" d="M61.0555 6.75952H42.9737H42.4209V7.31231V11.7346V12.2874H42.9737H48.9903V31.0823V31.6351H49.5431H54.374H54.9268V31.0823V12.2874H61.0555H61.6083V11.7346V7.31231V6.75952H61.0555Z" fill="white"/>
<path id="Vector_15" d="M103.268 6.83165H98.0124V6.88773V20.2188C97.3875 18.8568 96.7386 17.543 96.0737 16.2691L91.2748 7.10404L91.1306 6.80762H84.377V31.6111H90.1853V20.1226C90.1853 19.7141 90.1852 19.3135 90.1692 18.8889V18.1358L90.6499 19.0411C90.9463 19.666 91.2428 20.3149 91.5712 20.9799L96.8988 31.3066L97.043 31.603H103.797V6.83165H103.244H103.26H103.268Z" fill="white"/>
<path id="Vector_16" d="M91.651 18.5603L91.1543 18.8167L91.651 18.6004V18.5763V18.5603Z" fill="white"/>
<path id="Vector_17" d="M82.9101 30.842L82.8701 30.8019L80.9874 26.652L80.6349 25.8749L78.2715 20.6754C79.4732 20.1947 80.4105 19.4577 81.1155 18.4803C81.9487 17.3186 82.3493 15.9006 82.3493 14.2342C82.3493 12.5678 82.109 11.7827 81.6283 10.7332C81.1316 9.65969 80.4266 8.81849 79.5052 8.20962C77.919 7.27228 76.0523 6.80762 73.9373 6.80762H63.6426V31.6111H69.6191V21.781H72.2549L76.533 31.2826L76.6772 31.6111H83.2466L82.8941 30.8339L82.9101 30.842ZM76.1244 14.2983C76.1244 15.5882 75.0829 16.6296 73.7931 16.6296H69.555V11.7427H73.7931C75.0829 11.7427 76.1244 12.7842 76.1244 14.074V14.2983Z" fill="white"/>
</g>
<defs>
<linearGradient id="paint0_linear_3316_7164" x1="42.4209" y1="38.573" x2="103.845" y2="38.573" gradientUnits="userSpaceOnUse">
<stop stop-color="#D51F26"/>
<stop offset="1" stop-color="#F05822"/>
</linearGradient>
</defs>
</svg>
