<svg width="17" height="17" viewBox="0 0 17 17" fill="none" xmlns="http://www.w3.org/2000/svg">
<g id="Linear / Messages, Conversation  /  Letter">
<path id="Vector" d="M1.83398 8.45052C1.83398 5.93636 1.83398 4.67928 2.61503 3.89824C3.39608 3.11719 4.65316 3.11719 7.16732 3.11719H9.83398C12.3481 3.11719 13.6052 3.11719 14.3863 3.89824C15.1673 4.67928 15.1673 5.93636 15.1673 8.45052C15.1673 10.9647 15.1673 12.2218 14.3863 13.0028C13.6052 13.7839 12.3481 13.7839 9.83398 13.7839H7.16732C4.65316 13.7839 3.39608 13.7839 2.61503 13.0028C1.83398 12.2218 1.83398 10.9647 1.83398 8.45052Z" fill="#F5F7FB" fill-opacity="0.9"/>
<path id="Vector_2" d="M4.5 5.78418L5.93926 6.98357C7.16369 8.00392 7.7759 8.5141 8.5 8.5141C9.2241 8.5141 9.83631 8.00392 11.0607 6.98357L12.5 5.78418" stroke="#424952" stroke-linecap="round"/>
</g>
</svg>
