<svg width="460" height="450" viewBox="0 0 460 450" fill="none" xmlns="http://www.w3.org/2000/svg">
<path d="M344.667 0H460V116.892H397.456C368.302 116.892 344.667 93.2573 344.667 64.1025V0Z" fill="#F98B5B"/>
<path d="M229.333 116.892H344.666V233.783H282.122C252.968 233.783 229.333 210.149 229.333 180.994V116.892Z" fill="#F9824D"/>
<path d="M230 333H345.333V449.892H282.789C253.635 449.892 230 426.257 230 397.103V333Z" fill="#F99769"/>
<path d="M115 216H230.333V332.892H167.789C138.635 332.892 115 309.257 115 280.103V216Z" fill="#FBC6AB"/>
<path d="M0 99H115.333V215.892H52.7894C23.6346 215.892 0 192.257 0 163.103V99Z" fill="#F9C9B2"/>
<path d="M114 0H229.333V116.892H166.789C137.635 116.892 114 93.2573 114 64.1025V0Z" fill="#F89F77"/>
<path d="M344.667 233.783H460V350.675H397.456C368.302 350.675 344.667 327.04 344.667 297.886V233.783Z" fill="#F98E5D"/>
</svg>
