<svg width="17" height="17" viewBox="0 0 17 17" fill="none" xmlns="http://www.w3.org/2000/svg">
<g id="Linear / Call / Phone Calling Rounded">
<path id="Vector" d="M10.0088 1.80957C10.0088 1.80957 11.503 1.94541 13.4048 3.84717C15.3065 5.74893 15.4424 7.24316 15.4424 7.24316" stroke="#F5F7FB" stroke-opacity="0.9" stroke-linecap="round"/>
<path id="Vector_2" d="M10.1494 4.21094C10.1494 4.21094 10.8218 4.40304 11.8303 5.4116C12.8389 6.42016 13.031 7.09254 13.031 7.09254" stroke="#F5F7FB" stroke-opacity="0.9" stroke-linecap="round"/>
<path id="Vector_3" d="M7.31752 4.06191L7.75833 4.85177C8.15614 5.56458 7.99645 6.49966 7.3699 7.1262C7.3699 7.12621 7.3699 7.12621 7.3699 7.12621C7.36982 7.12629 6.60999 7.88626 7.98784 9.26411C9.36524 10.6415 10.1252 9.8826 10.1257 9.88205C10.1258 9.88203 10.1258 9.88204 10.1258 9.88203C10.7523 9.2555 11.6874 9.09582 12.4002 9.49362L13.19 9.93443C14.2664 10.5351 14.3935 12.0446 13.4474 12.9907C12.8789 13.5592 12.1825 14.0015 11.4126 14.0307C10.1166 14.0798 7.91569 13.7518 5.7079 11.5441C3.50011 9.33627 3.17212 7.13532 3.22125 5.83932C3.25043 5.06946 3.69278 4.37303 4.26127 3.80454C5.20736 2.85845 6.71683 2.98556 7.31752 4.06191Z" fill="#F5F7FB" fill-opacity="0.9"/>
</g>
</svg>
