<svg width="24" height="25" viewBox="0 0 24 25" fill="none" xmlns="http://www.w3.org/2000/svg">
<g id="Social Media Icon Square/Twitter">
<rect id="Social Media Icon" y="0.101562" width="24" height="24" rx="4" fill="#F5F7FB" fill-opacity="0.2"/>
<path id="Twitter" d="M14.018 7.23556V7.2334H14.5807L14.7863 7.27446C14.9234 7.30112 15.0478 7.33605 15.1596 7.37927C15.2714 7.4225 15.3796 7.47293 15.4842 7.53055C15.5888 7.58818 15.6837 7.6469 15.7688 7.70668C15.8532 7.76576 15.929 7.82843 15.996 7.8947C16.0624 7.9617 16.1659 7.97899 16.3066 7.94657C16.4473 7.91415 16.5987 7.86912 16.761 7.8115C16.9234 7.75387 17.0839 7.68904 17.2426 7.617C17.4013 7.54496 17.4979 7.49922 17.5326 7.47977C17.5665 7.4596 17.5845 7.4488 17.5867 7.44735L17.5888 7.44411L17.5996 7.4387L17.6105 7.4333L17.6213 7.4279L17.6321 7.4225L17.6343 7.41925L17.6375 7.41709L17.6408 7.41493L17.6429 7.41169L17.6537 7.40845L17.6646 7.40629L17.6624 7.4225L17.6592 7.4387L17.6537 7.45491L17.6483 7.47112L17.6429 7.48193L17.6375 7.49273L17.6321 7.50894C17.6285 7.51975 17.6249 7.53415 17.6213 7.55216C17.6177 7.57018 17.5834 7.64221 17.5185 7.76828C17.4536 7.89434 17.3724 8.02221 17.275 8.15187C17.1776 8.28154 17.0904 8.37951 17.0132 8.44579C16.9353 8.51278 16.8837 8.5596 16.8584 8.58626C16.8332 8.61363 16.8025 8.63884 16.7665 8.6619L16.7124 8.69756L16.7015 8.70296L16.6907 8.70836L16.6886 8.71161L16.6853 8.71377L16.6821 8.71593L16.6799 8.71917L16.6691 8.72457L16.6583 8.72997L16.6561 8.73322L16.6528 8.73538L16.6496 8.73754L16.6474 8.74078L16.6453 8.74402L16.642 8.74618L16.6388 8.74834L16.6366 8.75159H16.6907L16.9937 8.68675C17.1957 8.64353 17.3886 8.59131 17.5726 8.53007L17.8647 8.43282L17.8972 8.42201L17.9134 8.41661L17.9243 8.41121L17.9351 8.40581L17.9459 8.4004L17.9567 8.395L17.9784 8.39176L18 8.3896V8.41121L17.9946 8.41337L17.9892 8.41661L17.987 8.41985L17.9838 8.42201L17.9805 8.42418L17.9784 8.42742L17.9762 8.43066L17.9729 8.43282L17.9697 8.43498L17.9675 8.43822L17.9654 8.44147L17.9621 8.44363L17.9567 8.45443L17.9513 8.46524L17.9481 8.4674C17.9466 8.46956 17.9008 8.53078 17.8106 8.65109C17.7205 8.77212 17.6718 8.83334 17.6646 8.83479C17.6574 8.83695 17.6472 8.84776 17.6343 8.86721C17.622 8.88737 17.5455 8.9677 17.4049 9.10817C17.2642 9.24864 17.1264 9.37362 16.9915 9.48313C16.8559 9.59334 16.7874 9.72877 16.7859 9.88942C16.7838 10.0493 16.7755 10.2302 16.761 10.4319C16.7466 10.6336 16.7196 10.8515 16.6799 11.0856C16.6402 11.3197 16.5789 11.5845 16.4959 11.8798C16.413 12.1752 16.312 12.4633 16.193 12.7443C16.0739 13.0252 15.9495 13.2773 15.8197 13.5006C15.6898 13.724 15.5708 13.9131 15.4626 14.0679C15.3544 14.2228 15.2444 14.3687 15.1326 14.5056C15.0207 14.6424 14.8794 14.7966 14.7084 14.9681C14.5367 15.1388 14.4429 15.2324 14.4271 15.249C14.4105 15.2648 14.3398 15.3239 14.215 15.4262C14.0909 15.5292 13.9574 15.6322 13.8146 15.7352C13.6725 15.8375 13.5419 15.9229 13.4229 15.9913C13.3039 16.0598 13.1603 16.1379 12.9922 16.2258C12.8249 16.3144 12.6438 16.3966 12.4491 16.4722C12.2543 16.5478 12.0487 16.6181 11.8323 16.6829C11.6159 16.7477 11.4067 16.7982 11.2047 16.8342C11.0027 16.8702 10.7737 16.9008 10.5176 16.926L10.1335 16.9638V16.9692H9.43012V16.9638L9.33814 16.9584C9.27683 16.9548 9.22633 16.9512 9.18665 16.9476C9.14699 16.944 8.99729 16.9242 8.7376 16.8882C8.47791 16.8522 8.27412 16.8162 8.12624 16.7802C7.97837 16.7441 7.75834 16.6757 7.46619 16.5748C7.17403 16.474 6.92408 16.3721 6.71632 16.269C6.50929 16.1667 6.37944 16.1019 6.32678 16.0745C6.27484 16.0479 6.21641 16.0148 6.15149 15.9751L6.0541 15.9157L6.05195 15.9125L6.04869 15.9103L6.04545 15.9081L6.04328 15.9049L6.03246 15.8995L6.02164 15.8941L6.01949 15.8908L6.01623 15.8887L6.01298 15.8865L6.01082 15.8833L6.00867 15.88L6.00541 15.8779H6V15.8563L6.01082 15.8584L6.02164 15.8617L6.07033 15.8671C6.1028 15.8707 6.19117 15.8761 6.33544 15.8833C6.47972 15.8905 6.633 15.8905 6.79531 15.8833C6.95762 15.8761 7.12354 15.8599 7.29306 15.8347C7.46258 15.8095 7.66276 15.7662 7.8936 15.705C8.12444 15.6438 8.33653 15.571 8.52986 15.4867C8.72246 15.4017 8.85952 15.3383 8.94104 15.2965C9.02183 15.2555 9.14518 15.1791 9.31109 15.0675L9.55996 14.9L9.56213 14.8967L9.56537 14.8946L9.56863 14.8924L9.57078 14.8892L9.57295 14.8859L9.57619 14.8838L9.57945 14.8816L9.58161 14.8784L9.59243 14.8751L9.60325 14.873L9.60541 14.8622L9.60866 14.8513L9.61191 14.8492L9.61407 14.8459L9.5275 14.8405C9.4698 14.8369 9.41389 14.8333 9.35978 14.8297C9.30568 14.8261 9.22092 14.8099 9.1055 14.7811C8.99009 14.7523 8.86565 14.7091 8.73219 14.6514C8.59874 14.5938 8.46889 14.5254 8.34265 14.4461C8.21642 14.3669 8.12516 14.301 8.06889 14.2484C8.01335 14.1965 7.94121 14.1231 7.85248 14.028C7.76448 13.9322 7.68801 13.8338 7.62308 13.733C7.55816 13.6321 7.49613 13.5158 7.43698 13.3839L7.34716 13.1873L7.34175 13.1711L7.33634 13.1549L7.33309 13.1441L7.33093 13.1333L7.34716 13.1354L7.36339 13.1387L7.48242 13.1549C7.56177 13.1657 7.68621 13.1693 7.85573 13.1657C8.02525 13.1621 8.14247 13.1549 8.20739 13.1441C8.27232 13.1333 8.312 13.1261 8.32642 13.1225L8.34806 13.1171L8.37511 13.1116L8.40216 13.1062L8.40433 13.103L8.40757 13.1008L8.41083 13.0987L8.41298 13.0954L8.39134 13.09L8.3697 13.0846L8.34806 13.0792L8.32642 13.0738L8.30478 13.0684C8.29036 13.0648 8.26511 13.0576 8.22904 13.0468C8.19297 13.036 8.09559 12.9964 7.93688 12.928C7.77819 12.8595 7.65194 12.7929 7.55816 12.728C7.46415 12.663 7.3745 12.5919 7.28981 12.5152C7.20541 12.4374 7.11272 12.3372 7.01172 12.2148C6.91073 12.0923 6.82057 11.95 6.74121 11.788C6.66186 11.6259 6.60235 11.471 6.56267 11.3233C6.52315 11.1765 6.49708 11.0264 6.48477 10.8749L6.46528 10.648L6.4761 10.6501L6.48693 10.6534L6.49775 10.6588L6.50857 10.6642L6.51939 10.6696L6.53021 10.675L6.69793 10.7506C6.80975 10.8011 6.94861 10.8443 7.11452 10.8803C7.28044 10.9163 7.37962 10.9361 7.41208 10.9397L7.46078 10.9451H7.55816L7.55601 10.9419L7.55275 10.9397L7.5495 10.9376L7.54734 10.9343L7.54519 10.9311L7.54193 10.9289L7.53868 10.9268L7.53652 10.9235L7.5257 10.9181L7.51488 10.9127L7.51272 10.9095L7.50947 10.9073L7.50622 10.9051L7.50406 10.9019L7.49324 10.8965L7.48242 10.8911L7.48026 10.8879C7.4781 10.8864 7.44708 10.8634 7.3872 10.8187C7.32804 10.7733 7.26601 10.7146 7.20108 10.6426C7.13616 10.5705 7.07124 10.4949 7.00631 10.4156C6.94127 10.3362 6.88334 10.2513 6.83318 10.1617C6.78269 10.0717 6.72931 9.95712 6.67304 9.8181C6.6175 9.67979 6.5753 9.5404 6.54644 9.39992C6.51759 9.25945 6.50136 9.12078 6.49775 8.98391C6.49414 8.84703 6.49775 8.72997 6.50857 8.63272C6.51939 8.53547 6.54103 8.42561 6.57349 8.30315C6.60595 8.18069 6.65285 8.05103 6.71416 7.91415L6.80613 7.70885L6.81154 7.69264L6.81695 7.67643L6.82021 7.67427L6.82236 7.67103L6.82453 7.66778L6.82777 7.66562L6.83103 7.66778L6.83318 7.67103L6.83535 7.67427L6.83859 7.67643L6.84185 7.67859L6.844 7.68183L6.84617 7.68507L6.84941 7.68723L6.85482 7.69804L6.86023 7.70885L6.86349 7.71101L6.86564 7.71425L7.01172 7.87633C7.10911 7.98439 7.22453 8.10505 7.35798 8.23832C7.49144 8.37159 7.56538 8.44074 7.5798 8.44579C7.59424 8.45155 7.61226 8.46811 7.6339 8.49549C7.65555 8.52215 7.72769 8.5859 7.85032 8.68675C7.97296 8.7876 8.13346 8.90467 8.33183 9.03793C8.53021 9.1712 8.75023 9.30267 8.99188 9.43234C9.23355 9.56201 9.49324 9.67906 9.77096 9.78352C10.0487 9.88798 10.2435 9.95641 10.3553 9.98883C10.4671 10.0212 10.6583 10.0627 10.9288 10.1131C11.1993 10.1635 11.4031 10.1959 11.5401 10.2103C11.6772 10.2247 11.771 10.233 11.8215 10.2352L11.8972 10.2374L11.8951 10.2211L11.8918 10.2049L11.8702 10.0699C11.8557 9.97983 11.8485 9.85376 11.8485 9.69167C11.8485 9.52959 11.8611 9.38012 11.8864 9.24324C11.9116 9.10637 11.9495 8.9677 12 8.82723C12.0505 8.68675 12.0999 8.57401 12.1482 8.48901C12.1973 8.40473 12.2615 8.30856 12.3408 8.2005C12.4202 8.09244 12.523 7.98079 12.6492 7.86553C12.7755 7.75026 12.9197 7.64761 13.0821 7.55757C13.2444 7.46752 13.3941 7.39908 13.5311 7.35226C13.6682 7.30544 13.7836 7.27482 13.8774 7.26041C13.9711 7.24601 14.018 7.23772 14.018 7.23556Z" fill="#F5F7FB" fill-opacity="0.9"/>
</g>
</svg>
