<svg width="24" height="25" viewBox="0 0 24 25" fill="none" xmlns="http://www.w3.org/2000/svg">
<g id="Group 73">
<rect id="Social Media Icon" y="0.101562" width="24" height="24" rx="4" fill="#F5F7FB" fill-opacity="0.2"/>
<path id="YouTube" d="M12.2928 16.7548L9.5847 16.7042C8.70787 16.6866 7.82885 16.7218 6.96921 16.5391C5.66151 16.2661 5.56886 14.9275 5.47192 13.8046C5.33835 12.2261 5.39006 10.6189 5.64213 9.05349C5.78443 8.17514 6.34446 7.65103 7.21051 7.59399C10.1341 7.38701 13.0771 7.41154 15.9942 7.50811C16.3023 7.51696 16.6125 7.56534 16.9162 7.62042C18.4158 7.88903 18.4523 9.40596 18.5495 10.6829C18.6465 11.9731 18.6056 13.2699 18.4203 14.5512C18.2716 15.6121 17.9872 16.5018 16.787 16.5877C15.2831 16.7 13.8138 16.7905 12.3057 16.7617C12.3058 16.7548 12.2971 16.7548 12.2928 16.7548ZM10.7007 14.0689C11.834 13.4039 12.9456 12.7501 14.0724 12.0896C12.937 11.4246 11.8275 10.7708 10.7007 10.1103V14.0689Z" fill="#F5F7FB" fill-opacity="0.9"/>
</g>
</svg>
